<svg width="65" height="70" xmlns="http://www.w3.org/2000/svg">

 <g>
  <title>Layer 1</title>
  <g>
   <title>Extra Thick Cat Tighter Fit</title>
   <g stroke-width="0.8" stroke="black" fill="black">
    <path d="m26.00076,36.62302a3.43107,3.43107 0 0 1 -3.1875,-3.625a3.43108,3.43108 0 0 1 3.1875,-3.625a3.43108,3.43108 0 0 1 3.1875,3.625a3.43107,3.43107 0 0 1 -3.1875,3.625zm0,-5.25c-0.64355,0 -1.1875,0.74415 -1.1875,1.625s0.54395,1.625 1.1875,1.625s1.1875,-0.74414 1.1875,-1.625s-0.54395,-1.625 -1.1875,-1.625z"/>
    <path d="m39.00076,36.62302a3.43107,3.43107 0 0 1 -3.1875,-3.625a3.43108,3.43108 0 0 1 3.1875,-3.625a3.43108,3.43108 0 0 1 3.1875,3.625a3.43107,3.43107 0 0 1 -3.1875,3.625zm0,-5.25c-0.64355,0 -1.1875,0.74415 -1.1875,1.625s0.544,1.625 1.1875,1.625s1.1875,-0.74414 1.1875,-1.625s-0.54395,-1.625 -1.1875,-1.625z"/>
    <path d="m39.82205,43.04491a1.00308,1.00308 0 0 0 -1.29492,0.56836a2.72631,2.72631 0 0 1 -4.53382,0.87866a4.018,4.018 0 0 0 1.04651,-0.87036a4.999,4.999 0 0 0 1.14356,-2.59375a0.99854,0.99854 0 0 0 -0.30762,-0.82715a4.56363,4.56363 0 0 0 -3.376,-1.18066a4.56929,4.56929 0 0 0 -3.3789,1.17676a0.99823,0.99823 0 0 0 -0.30664,0.83007a5.024,5.024 0 0 0 1.1455,2.59473a4.0273,4.0273 0 0 0 1.048,0.871a2.72627,2.72627 0 0 1 -4.53339,-0.87976a1,1 0 1 0 -1.86328,0.72656a4.72213,4.72213 0 0 0 7.88971,1.47946a4.7223,4.7223 0 0 0 7.88965,-1.479a1.00021,1.00021 0 0 0 -0.56836,-1.29492zm-7.32229,-2.02491a3.0587,3.0587 0 0 1 1.57325,0.31006a2.989,2.989 0 0 1 -0.55274,0.99072a1.972,1.972 0 0 1 -1.01951,0.64648a1.97486,1.97486 0 0 1 -1.02148,-0.64648a3.01007,3.01007 0 0 1 -0.55372,-0.99463a3.08756,3.08756 0 0 1 1.5742,-0.30615z"/>
    <path d="m62.21756,45.24851a29.78879,29.78879 0 0 0 -8.27735,-3.4917c-0.30639,-0.07751 -0.61737,-0.13745 -0.92633,-0.20514a13.74326,13.74326 0 0 0 -0.08929,-9.18829l0,-14.1803a2.32491,2.32491 0 0 0 -1.09863,-2.29882c-1.2002,-0.62256 -2.64356,0.32324 -2.877,0.48974l-7.88452,4.97046a25.65321,25.65321 0 0 0 -17.12683,0.00012l-7.84212,-4.94177c-0.27637,-0.19531 -1.72168,-1.1416 -2.919,-0.51855a2.323,2.323 0 0 0 -1.09961,2.29882l0,14.1803a13.74326,13.74326 0 0 0 -0.08929,9.18829c-0.309,0.06769 -0.61994,0.12763 -0.92633,0.20514a29.78879,29.78879 0 0 0 -8.2773,3.4917a0.9999,0.9999 0 1 0 1.04493,1.70508a27.83489,27.83489 0 0 1 7.72265,-3.2583c0.39618,-0.10016 0.79682,-0.18243 1.19733,-0.265a16.22528,16.22528 0 0 0 1.79266,2.84417c-0.92236,0.41352 -1.8313,0.85584 -2.71264,1.35242a33.31388,33.31388 0 0 0 -5.02637,3.47949a1.00029,1.00029 0 0 0 1.28515,1.53321a31.25455,31.25455 0 0 1 4.72364,-3.27051a31.037,31.037 0 0 1 3.11786,-1.50861a23.35774,23.35774 0 0 0 16.57259,6.46081a23.35512,23.35512 0 0 0 16.57072,-6.46076a29.75709,29.75709 0 0 1 7.84137,4.77912a1.00029,1.00029 0 0 0 1.28515,-1.53321a33.3143,33.3143 0 0 0 -5.02636,-3.47951c-0.88129,-0.49658 -1.79023,-0.93884 -2.71259,-1.35235a16.2255,16.2255 0 0 0 1.7926,-2.84424c0.40051,0.08252 0.80115,0.16479 1.19733,0.265a27.83508,27.83508 0 0 1 7.72266,3.2583a0.99989,0.99989 0 0 0 1.04492,-1.70511zm-12.15821,-27.21191a2.35427,2.35427 0 0 1 0.8086,-0.35938a1.75829,1.75829 0 0 1 0.05664,0.50586l0,10.35651a19.79341,19.79341 0 0 0 -7.6142,-6.2475l6.74896,-4.25549zm-35.98242,0.14648a1.72483,1.72483 0 0 1 0.05664,-0.50586a2.447,2.447 0 0 1 0.85157,0.38868l6.70544,4.22674a19.79391,19.79391 0 0 0 -7.61365,6.24707l0,-10.35663zm34.48468,27.29743a33.72365,33.72365 0 0 0 -5.053,-1.462a1.00014,1.00014 0 0 0 -0.40429,1.959a31.7775,31.7775 0 0 1 3.91436,1.09271a21.63892,21.63892 0 0 1 -14.5169,5.251a21.64219,21.64219 0 0 1 -14.5185,-5.25116a31.75857,31.75857 0 0 1 3.914,-1.09259a1.00014,1.00014 0 1 0 -0.40429,-1.959a33.72976,33.72976 0 0 0 -5.0528,1.46186a14.55976,14.55976 0 0 1 -1.64569,-2.40113a27.8865,27.8865 0 0 1 3.27271,-0.22821a1,1 0 0 0 -0.01075,-2l-0.01074,0a29.88249,29.88249 0 0 0 -4.07867,0.33533a12.21591,12.21591 0 0 1 -0.726,-4.08826c0,-8.395 8.64063,-15.2251 19.26075,-15.2251c10.61914,0 19.25879,6.83008 19.25879,15.2251a12.217,12.217 0 0 1 -0.7259,4.08826a29.88424,29.88424 0 0 0 -4.07879,-0.33533l-0.01074,0a1,1 0 0 0 -0.01075,2a27.88961,27.88961 0 0 1 3.27289,0.22827a14.55513,14.55513 0 0 1 -1.64569,2.40125z"/>
   </g>
  </g>
 </g>
</svg>