<svg width="90" height="90" xmlns="http://www.w3.org/2000/svg" version="1.1">

 <g>
  <title>Layer 1</title>
  <path id="svg_1" d="m45.0014,11.58965c-8.2109,0 -14.891,6.6797 -14.891,14.891l0,1.1094l-7.3789,0c-2.9688,0 -5.8086,1.2812 -7.7812,3.5c-1.9688,2.2188 -2.8984,5.1914 -2.5508,8.1484l3.6016,30c0.62891,5.2305 5.0703,9.1719 10.328,9.1719l37.34,0c5.2617,0 9.7109,-3.9414 10.328,-9.1719l3.6016,-30c0.35156,-2.9492 -0.57031,-5.9219 -2.5508,-8.1484c-1.9805,-2.2305 -4.8086,-3.5 -7.7812,-3.5l-7.3789,0l0,-1.1094c0,-8.2109 -6.6797,-14.891 -14.891,-14.891l0.0046,0zm-10.891,14.887c0,-6.0117 4.8906,-10.891 10.891,-10.891s10.891,4.8906 10.891,10.891l0,1.1094l-21.789,0l0,-1.1094l0.007,0zm33.16,5.1133c1.8281,0 3.5781,0.78906 4.7891,2.1484c1.2109,1.3711 1.7891,3.1992 1.5703,5.0195l-3.6016,30c-0.39062,3.2188 -3.1211,5.6406 -6.3594,5.6406l-37.34,0c-3.2383,0 -5.9805,-2.4297 -6.3594,-5.6406l-3.6016,-30c-0.21875,-1.8203 0.35156,-3.6484 1.5703,-5.0195c1.2109,-1.3711 2.9609,-2.1484 4.7891,-2.1484l7.3789,0l0,5.1484c0,1.1016 0.89844,2 2,2c1.1016,0 2,-0.89844 2,-2l0,-5.1484l21.789,0l0,5.1484c0,1.1016 0.89844,2 2,2c1.1016,0 2,-0.89844 2,-2l0,-5.1484l7.3789,0l-0.0036,0z"/>
 </g>
</svg>