<svg xmlns="http://www.w3.org/2000/svg" version="1.1" viewBox="-5.0 -10.0 110.0 135.0">
 <path d="m30.422 38.051c2.0117 1.3984 4.2891 2.0898 6.4688 2.0898 2.5508 0 4.9492-0.94922 6.6016-2.8203 2.4492-2.8008 3.2617-6.1992 3.2812-10.648-0.37109-5.3594-2.0117-11.02-6.6914-15.379-2.4297-2.2695-5.1914-3.3281-7.8008-3.3281-4.4688 0-8.5391 3.1016-9.9102 8.6016-1.8594 7.3438 1.8203 17.145 8.0508 21.484zm-4.6602-20.652c0.91016-3.6719 3.4102-5.9492 6.5117-5.9492 1.8711 0 3.7383 0.82812 5.4219 2.3906 3.3398 3.1211 5.1719 7.3516 5.5781 12.941-0.03125 3.9219-0.73828 6.3203-2.4102 8.2305-0.92188 1.0508-2.3281 1.6289-3.9688 1.6289-1.5312 0-3.1211-0.51953-4.4805-1.4609-5.043-3.5195-8.1523-11.82-6.6523-17.781z"/>
 <path d="m26.539 52.66c0.21875-1.8398 0.039063-3.8594-0.46094-5.6484-1.5586-5.5508-4.2617-10.41-9.6719-13.129-1.6719-0.83984-3.4492-1.25-5.1602-1.25-4.9805 0-9.4297 3.4609-9.1797 9.7695-0.03125 7.5703 5.5117 15.352 12.57 17.66 1.1719 0.37891 2.3203 0.57031 3.4102 0.57031 4.4219-0.003906 7.9141-3.0234 8.4922-7.9727zm-20.969-10.238v-0.15625c-0.078124-1.8984 0.41016-3.4102 1.4492-4.4883 1.0195-1.0586 2.5195-1.6484 4.2305-1.6484 1.2109 0 2.4492 0.30078 3.5898 0.87891 3.8203 1.9219 6.3203 5.4102 7.8789 10.949 0.39062 1.3789 0.51953 2.9414 0.35156 4.2891-0.35937 3.0508-2.2305 4.8789-5.0117 4.8789-0.73828 0-1.5195-0.12891-2.3203-0.39062-5.6367-1.8359-10.188-8.2656-10.168-14.312z"/>
 <path d="m63.129 40.129c2.1797 0 4.4609-0.69141 6.4688-2.0898 6.2305-4.3281 9.9102-14.129 8.0586-21.512-1.3789-5.5-5.4492-8.6016-9.9219-8.6016-2.6211 0-5.3711 1.0586-7.8086 3.3281-4.6914 4.3711-6.3203 10.02-6.6914 15.379 0.019531 4.4492 0.82812 7.8516 3.2812 10.648 1.6641 1.8984 4.0625 2.8477 6.6133 2.8477zm-0.80078-26.301c1.6797-1.5586 3.5508-2.3906 5.4219-2.3906 3.1094 0 5.6094 2.2812 6.5312 5.9492 1.4883 5.9805-1.6211 14.289-6.6602 17.781-1.3594 0.94141-2.9492 1.4609-4.4805 1.4609-1.6289 0-3.0391-0.57812-3.9609-1.6406-1.6797-1.9219-2.3789-4.3086-2.4102-8.2383 0.39062-5.5781 2.2188-9.8086 5.5586-12.922z"/>
 <path d="m88.77 32.641c-1.7188 0-3.4883 0.41016-5.1719 1.25-5.4102 2.7305-8.1211 7.5781-9.6719 13.129-0.5 1.7891-0.67188 3.8008-0.46094 5.6484 0.58984 4.9492 4.0898 7.9805 8.5 7.9805 1.0781 0 2.2188-0.17969 3.3906-0.55859 7.0586-2.3086 12.602-10.09 12.57-17.66 0.26562-6.3398-4.1758-9.7891-9.1562-9.7891zm5.6602 9.8008c0.03125 6.0508-4.5312 12.48-10.16 14.32-0.78906 0.26172-1.5703 0.39062-2.3008 0.39062-2.7812 0-4.6602-1.8281-5.0312-4.8789-0.16016-1.3711-0.03125-2.9414 0.35156-4.3008 1.5508-5.5508 4.0586-9.0312 7.8789-10.949 1.1406-0.57031 2.3789-0.87891 3.5898-0.87891 1.6992 0 3.1992 0.57812 4.2188 1.6406 1.0391 1.0781 1.5195 2.6016 1.4492 4.5v0.078125z"/>
 <path d="m72.32 61.02c-2.5117-3.0508-4.5781-6.3984-6.8711-9.6094-0.94922-1.3203-1.9219-2.6289-2.9609-3.8906-2.9414-3.5703-7.7109-5.3516-12.488-5.3516-4.7812 0-9.5391 1.7891-12.488 5.3516-1.0391 1.2695-2.0117 2.5703-2.9609 3.8906-2.2891 3.2109-4.3516 6.5508-6.8711 9.6094-1.8906 2.2891-4.5312 4.0703-6.5117 6.3086-4.4102 5-5.0312 10.609-2.0703 16.301 2.9688 5.7188 8.5312 8.1016 15.352 8.4219 0.26172 0.011719 0.51172 0.019531 0.76953 0.019531 4.8398 0 9.3203-2.1094 14.129-2.3203 0.23047-0.011719 0.44922-0.011719 0.66016-0.011719 0.21094 0 0.42969 0 0.64844 0.011719 4.8203 0.21094 9.3086 2.3203 14.148 2.3203 0.25 0 0.48828-0.011718 0.73828-0.019531 6.8086-0.32031 12.379-2.6992 15.352-8.4219 2.9492-5.6914 2.3398-11.301-2.0703-16.301-1.9844-2.2383-4.625-4.0078-6.5039-6.3086zm5.4805 21c-2.1289 4.1016-6.1914 6.2383-12.398 6.5312-0.19141 0.011719-0.39062 0.011719-0.57812 0.011719-2.1406 0-4.3281-0.51953-6.6484-1.0703-2.3281-0.55078-4.7383-1.1289-7.3398-1.2383-0.28125-0.011718-0.55078-0.011718-0.82031-0.011718-0.26172 0-0.53125 0-0.82031 0.011718-2.6094 0.12109-5.0117 0.69141-7.3398 1.2383-2.3086 0.55078-4.5 1.0703-6.6289 1.0703-0.19922 0-0.39844 0-0.60156-0.011719-6.2188-0.28906-10.281-2.4297-12.41-6.5391-2.3281-4.4688-1.8086-8.5195 1.5781-12.359 0.78906-0.89062 1.75-1.7383 2.7695-2.6406 1.3008-1.1484 2.6406-2.3281 3.8086-3.7617 1.7891-2.1719 3.3398-4.4492 4.8398-6.6602 0.71094-1.0391 1.4414-2.1211 2.1719-3.1406 1.0781-1.5117 1.9492-2.6484 2.8203-3.6992 2.1094-2.5508 5.7695-4.0781 9.7891-4.0781 4.0195 0 7.6797 1.5195 9.7891 4.0781 1.0391 1.25 2 2.5703 2.8086 3.6914 0.73047 1.0312 1.4688 2.1094 2.1797 3.1484 1.5 2.2109 3.0586 4.4883 4.8398 6.6484 1.1797 1.4414 2.5312 2.6289 3.8398 3.7812 1.0195 0.89844 1.9805 1.75 2.7617 2.6211 3.3906 3.8477 3.9102 7.8984 1.5898 12.379z"/>
</svg>