<svg width="95" height="95" xmlns="http://www.w3.org/2000/svg" xml:space="preserve" version="1.1">

 <g>
  <title>Layer 1</title>
  <path id="svg_1" d="m82.02247,49.623c0.43,-3.601 -1.145,-5.835 -2.977,-7.688c-1.346,-3.15 -4.123,-6.878 -7.05,-8.315c-0.241,-0.605 -0.536,-1.196 -0.847,-1.767c0.654,-1.348 0.723,-2.812 0.186,-4.185c-0.502,-1.285 -1.537,-2.411 -2.727,-3.036c0.135,-1.415 -0.348,-2.393 -0.828,-2.992c-0.812,-1.009 -2.164,-1.639 -3.732,-1.763c-0.342,-1.058 -0.973,-1.89 -1.826,-2.397c-0.76,-0.453 -2.033,-0.84 -3.939,-0.336c-0.965,-1.102 -2.082,-1.722 -3.344,-1.841c-1.469,-0.138 -2.766,0.469 -3.598,1.005c-0.811,-0.831 -2.205,-1.916 -3.936,-1.919l-0.004,0c-1.59,0 -2.941,1.088 -3.744,1.918c-0.828,-0.535 -2.129,-1.142 -3.594,-1.004c-1.26,0.119 -2.383,0.739 -3.347,1.841c-1.905,-0.504 -3.179,-0.117 -3.94,0.334c-0.852,0.51 -1.483,1.342 -1.827,2.399c-1.566,0.124 -2.918,0.754 -3.726,1.763c-0.483,0.6 -0.968,1.577 -0.832,2.992c-1.19,0.625 -2.224,1.751 -2.729,3.036c-0.537,1.373 -0.468,2.837 0.188,4.185c-0.312,0.57 -0.605,1.159 -0.847,1.764c-3.051,1.493 -5.752,5.284 -7.05,8.318c-1.832,1.854 -3.407,4.088 -2.977,7.688c-6.795,9.076 -6.135,17.262 -5.034,21.539c-1.06,4.433 0.866,7.824 2.979,9.505c1.488,3.493 6.161,5.225 12.35,4.548c0.784,0.261 1.616,0.396 2.478,0.396c1.899,0 3.941,-0.631 5.881,-1.857c2.815,-1.772 4.821,-4.459 5.251,-6.978c0.911,-0.84 1.487,-2.334 1.849,-3.733c1.733,2.462 4.435,3.724 8.063,3.724c0.223,0 1.197,0 1.418,0c3.629,0 6.327,-1.262 8.062,-3.723c0.36,1.398 0.937,2.893 1.849,3.732c0.43,2.519 2.436,5.205 5.25,6.978c1.939,1.227 3.982,1.857 5.881,1.857c0.863,0 1.697,-0.135 2.479,-0.396c6.186,0.677 10.861,-1.055 12.35,-4.548c2.109,-1.681 4.037,-5.072 2.979,-9.505c1.098,-4.277 1.759,-12.463 -5.038,-21.539zm-55.874,-17.207c0.21,-0.368 0.198,-0.821 -0.031,-1.18c-0.575,-0.9 -0.687,-1.824 -0.329,-2.737c0.43,-1.085 1.42,-1.854 2.181,-2.052c0.297,-0.08 0.55,-0.269 0.704,-0.535c0.151,-0.265 0.19,-0.577 0.109,-0.872c-0.231,-0.841 -0.156,-1.501 0.22,-1.973c0.503,-0.623 1.6,-0.984 2.798,-0.925c0.59,0.026 1.101,-0.395 1.186,-0.974c0.086,-0.58 0.32,-1.353 0.961,-1.729c0.623,-0.372 1.592,-0.336 2.792,0.101c0.483,0.177 1.028,0.01 1.321,-0.413c0.672,-0.949 1.41,-1.473 2.207,-1.551c1.43,-0.145 2.76,1.104 2.77,1.108c0.238,0.231 0.568,0.349 0.896,0.319c0.332,-0.031 0.633,-0.205 0.826,-0.476c0.43,-0.607 1.643,-1.857 2.643,-1.857c1.248,0 2.469,1.337 2.838,1.853c0.188,0.272 0.49,0.443 0.822,0.477c0.33,0.033 0.66,-0.081 0.898,-0.308c0.014,-0.013 1.342,-1.258 2.773,-1.116c0.795,0.078 1.539,0.602 2.203,1.551c0.297,0.423 0.844,0.59 1.328,0.413c1.201,-0.437 2.164,-0.473 2.793,-0.101c0.635,0.377 0.871,1.149 0.957,1.729c0.084,0.579 0.598,1.004 1.184,0.974c1.203,-0.06 2.301,0.302 2.799,0.925c0.377,0.472 0.453,1.132 0.221,1.973c-0.082,0.295 -0.043,0.607 0.111,0.872c0.152,0.263 0.404,0.455 0.701,0.535c0.762,0.197 1.756,0.967 2.182,2.052c0.357,0.913 0.248,1.837 -0.332,2.737c-0.227,0.358 -0.238,0.812 -0.029,1.18c1.617,2.837 1.844,4.351 0.871,5.789c-0.146,0.218 -0.213,0.475 -0.189,0.738c0.215,2.482 -2.172,10.021 -4.537,10.868c-0.379,0.104 -4.758,1.208 -7.141,-3.304c-0.17,-0.319 -0.48,-0.539 -0.838,-0.594c-0.359,-0.054 -0.721,0.064 -0.977,0.32c-0.838,0.834 -3.697,1.665 -8.195,1.621c-3.828,-0.036 -7.338,-0.735 -8.541,-1.703c-0.27,-0.217 -0.629,-0.302 -0.969,-0.221c-0.342,0.076 -0.625,0.307 -0.777,0.62c-2.534,5.328 -7.521,3.238 -8,3.021c-2.208,-1.539 -4.29,-8.304 -4.089,-10.63c0.024,-0.264 -0.044,-0.521 -0.191,-0.738c-0.974,-1.436 -0.747,-2.95 0.87,-5.787zm10.868,37.135c-0.188,2.473 -1.048,5.2 -1.772,5.615c-0.326,0.187 -0.538,0.521 -0.571,0.897c-0.16,1.939 -1.872,4.255 -4.256,5.762c-2.283,1.437 -4.75,1.868 -6.604,1.162c-0.174,-0.066 -0.36,-0.092 -0.543,-0.066c-5.238,0.625 -9.39,-0.722 -10.33,-3.352c-0.076,-0.218 -0.219,-0.406 -0.405,-0.541c-1.676,-1.21 -3.285,-3.922 -2.312,-7.581c0.049,-0.195 0.049,-0.4 -0.003,-0.595c-1.049,-3.835 -1.811,-11.562 4.856,-20.222c0.192,-0.251 0.273,-0.567 0.222,-0.879c-0.517,-3.133 0.916,-4.86 2.425,-6.363c0.106,-0.106 0.191,-0.233 0.251,-0.374c0.864,-2.107 2.57,-4.672 4.444,-6.268c0.052,0.795 0.281,1.602 0.761,2.41c0.019,2.752 1.901,10.102 5.163,12.34c0.046,0.034 0.095,0.065 0.146,0.093c0.241,0.152 0.493,0.279 0.75,0.369l0.36,0.16c2.644,2.835 5.882,7.659 6.521,12.201l0.064,0.465c0.196,1.416 0.429,3.031 0.877,4.608c-0.012,0.055 -0.039,0.102 -0.044,0.159zm19.537,-5.082c-0.668,4.835 -1.436,10.315 -8.93,10.007c-0.043,-0.002 -0.202,-0.002 -0.246,0c-7.494,0.309 -8.262,-5.174 -8.934,-10.007l-0.066,-0.469c-0.584,-4.171 -2.993,-8.405 -5.505,-11.569c1.308,-0.08 2.682,-0.479 3.934,-1.382c0.289,0.992 1.195,1.723 2.278,1.723c1.314,0 2.379,-1.068 2.379,-2.385c0,-0.362 -0.087,-0.701 -0.23,-1.008c2.043,0.512 4.481,0.738 6.588,0.757c1.376,0.011 3.953,-0.06 6.235,-0.6c-0.102,0.266 -0.163,0.55 -0.163,0.851c0,1.316 1.066,2.385 2.379,2.385c1.174,0 2.143,-0.852 2.339,-1.97c1.2,0.843 2.489,1.263 3.688,1.418c-2.572,3.183 -5.079,7.515 -5.679,11.78l-0.067,0.469zm28.223,6.978c0.977,3.659 -0.637,6.371 -2.309,7.581c-0.189,0.135 -0.332,0.323 -0.406,0.541c-0.945,2.63 -5.094,3.977 -10.332,3.352c-0.184,-0.025 -0.369,0 -0.541,0.066c-1.855,0.706 -4.322,0.274 -6.604,-1.162c-2.387,-1.507 -4.1,-3.822 -4.258,-5.762c-0.033,-0.376 -0.242,-0.711 -0.57,-0.897c-0.729,-0.415 -1.588,-3.143 -1.773,-5.615c-0.004,-0.057 -0.032,-0.104 -0.045,-0.157c0.449,-1.576 0.68,-3.191 0.875,-4.608l0.066,-0.465c0.644,-4.584 3.937,-9.452 6.595,-12.276c0.064,-0.018 0.134,-0.033 0.194,-0.052c0.012,-0.005 0.025,-0.009 0.037,-0.012c3.846,-1.31 6.094,-9.816 6.113,-12.823c0.482,-0.814 0.711,-1.625 0.761,-2.425c1.87,1.589 3.567,4.151 4.444,6.282c0.059,0.141 0.145,0.268 0.252,0.374c1.512,1.503 2.941,3.23 2.424,6.36c-0.051,0.314 0.029,0.631 0.223,0.882c6.668,8.66 5.906,16.387 4.857,20.222c-0.054,0.194 -0.054,0.399 -0.003,0.594z" fill="#000000"/>
  <path id="svg_2" d="m47.5,66.26349c-2.57,0 -4.656,0.705 -4.656,2.915c0,2.209 2.086,4.547 4.656,4.547c2.572,0 4.656,-2.338 4.656,-4.547c0,-2.21 -2.084,-2.915 -4.656,-2.915z" fill="#000000"/>
 </g>
</svg>