<svg width="110" height="110" xmlns="http://www.w3.org/2000/svg" version="1.1">

 <g>
  <title>Layer 1</title>
  <path stroke-width="2" id="svg_1" d="m46.04885,46.65139c0.69922,1.8008 -0.10156,3.8008 -1.8984,4.5c-1.8008,0.69922 -3.8008,-0.10156 -4.5,-1.8984c-0.69922,-1.8008 0.10156,-3.8008 1.8984,-4.5c1.8008,-0.69922 3.8008,0.09766 4.5,1.8984zm55.801,6.6992c-1.6016,5.6992 -4.8984,11.5 -8.6016,15.301c-1.8008,1.8984 -3.8008,2.8008 -5.6016,2.8008c-0.5,0 -1,-0.10156 -1.5,-0.19922c-1.3008,-0.39844 -2.1992,-1.3008 -2.8984,-2.3008c-2.3008,6.8008 -7.5,19.199 -16.199,24.398c-2.6016,1.5 -5.3008,2.3008 -8.1016,2.3008c-1.3008,0 -2.6016,-0.19922 -3.8984,-0.5c-4.1992,1 -8.3008,0.39844 -12.102,-1.8008c-8.6992,-5.1016 -14,-17.602 -16.199,-24.398c-0.60156,1 -1.5,1.8984 -2.8984,2.3008c-2.1992,0.69922 -4.6992,-0.19922 -7.1016,-2.6016c-3.6992,-3.8008 -7,-9.6016 -8.6016,-15.301c-2,-7 -1.3008,-13.102 1.8984,-17.301c2,-2.6016 4.6992,-4.3008 7.1992,-5.8984l9.3984,-6c7.6992,-5 19.5,-9.8984 28.398,-9.8008c9,-0.10156 20.699,4.8008 28.398,9.8008l9.3984,6c2.3984,1.6016 5.1992,3.3984 7.1992,5.8984c3.1133,4.2031 3.8125,10.301 1.8125,17.301l0.0011,0.00002zm-41.602,39.301c-2.1016,-1.5 -4.1016,-3.3984 -5.3008,-4.6992c-1.1992,1.3008 -3.1992,3.1992 -5.3008,4.6992c1.6016,0.19922 3.1992,0 4.8984,-0.39844c0.30078,-0.10156 0.5,-0.10156 0.80078,0c1.7031,0.39844 3.3047,0.5 4.9023,0.39844l0.00012,0zm37.301,-54.898c-1.6992,-2.1992 -4.1016,-3.6992 -6.3984,-5.1992l-9.3984,-6c-7.3008,-4.6992 -18.5,-9.3984 -26.801,-9.3008c-8.3008,-0.10156 -19.5,4.6016 -26.801,9.3008l-9.3984,6c-2.3008,1.5 -4.8008,3.1016 -6.3984,5.1992c-5.8008,7.6016 0,22.102 6.5,28.801c0.69922,0.69922 2.5,2.3984 4.1016,1.8984c1.1992,-0.39844 2,-1.8984 2.3984,-4.5c0.30078,-2.1016 0.60156,-4.3984 0.80078,-6.5c0.69922,-6 1.3984,-12.199 3.8984,-17.898l2.6992,1.1992c-2.3008,5.3008 -3,11 -3.6016,17c-0.19922,2.1016 -0.5,4.1992 -0.80078,6.3008c0.69922,2.5 5.8984,20.801 16.199,26.801c0.39844,0.30078 0.80078,0.5 1.3008,0.69922c2.3984,-0.80078 6.1992,-4.5 8.1992,-6.6992c0.10156,-0.10156 0.10156,-0.10156 0.19922,-0.19922c-2.8008,-0.30078 -4.8984,-1.8984 -4.8984,-3.8008c0,-2.1016 2.6016,-3.8984 5.8984,-3.8984c3.1992,0 5.8984,1.6992 5.8984,3.8984c0,1.8984 -2.1016,3.5 -4.8984,3.8008c0.10156,0.10156 0.10156,0.10156 0.19922,0.19922c2,2.3008 5.8008,5.8984 8.1992,6.6992c0.39844,-0.19922 0.89844,-0.39844 1.3008,-0.69922c10.199,-6 15.5,-24.301 16.199,-26.801c-0.30078,-2.1016 -0.60156,-4.3008 -0.80078,-6.3008c-0.69922,-6 -1.3008,-11.699 -3.6016,-17l2.6992,-1.1992c2.5,5.6992 3.1992,11.898 3.8984,17.898c0.19922,2.1016 0.5,4.3984 0.80078,6.5c0.39844,2.6992 1.1992,4.1992 2.3984,4.5c1.5,0.5 3.3984,-1.1016 4.1016,-1.8984c6.0078,-6.7031 11.707,-21.203 5.9062,-28.801l0.00096,0zm-31.801,7c-1.8008,0.69922 -2.6016,2.8008 -1.8984,4.5c0.69922,1.6992 2.8008,2.6016 4.5,1.8984c1.6992,-0.69922 2.6016,-2.8008 1.8984,-4.5c-0.69922,-1.6992 -2.6992,-2.5977 -4.5,-1.8984z"/>
 </g>
</svg>